# xmcd
#
# Track frame offsets:
#  150
#  11975
#  23922
#  39912
#  52370
#  63000
#  76155
#  84157
#  95107
#  108447
#  119505
#  138425
#  146840
#
# Disc length: 2205 seconds
#
# Revision: 0
# Processed by: cddbd v1.4PL0 Copyright (c) Steve Scherf et al.
# Submitted via: AltoMP3_Maker 3.0
#
DISCID=b0089b0d
DTITLE=Joel Elizalde - Encanto y Juventud
DYEAR=1900
DGENRE=
TTITLE0=Encanto y Juventud
TTITLE1=Juan Osuna
TTITLE2=Borracho
TTITLE3=Para Que Caiga
TTITLE4=Mitad tu, mitad yo
TTITLE5=Con Que Pagas
TTITLE6=La Primavera
TTITLE7=Que Te Hizo Olvidarme
TTITLE8=La Rubia Del Moño Negro
TTITLE9=Una Tarde
TTITLE10=El Caminante
TTITLE11=Pretendiendo
TTITLE12=Recuerdos A Lola
EXTD=
EXTT0=
EXTT1=
EXTT2=
EXTT3=
EXTT4=
EXTT5=
EXTT6=
EXTT7=
EXTT8=
EXTT9=
EXTT10=
EXTT11=
EXTT12=
PLAYORDER=
